# xmcd
#
# Track frame offsets:
#	150
#	18380
#	30913
#	50200
#	66026
#	81817
#	94702
#	108878
#	121526
#	138398
#	152436
#	168248
#	183497
#
# Disc length: 2691 seconds
#
# Revision: 0
# Processed by: cddbd v1.5.2PL0 Copyright (c) Steve Scherf et al.
# Submitted via: MusicManager 7.3.0.0 
#
DISCID=960a810d
DTITLE=LOUISE MORRISSEY - YOU RAISE ME UP
DYEAR=2010
DGENRE=country
TTITLE0=YOU RAISE ME UP
TTITLE1=LOVE ME TONIGHT
TTITLE2=YOUNG LOVE {strong love}
TTITLE3=MY CONNEMARA MARBLE RING
TTITLE4=HALLELUJAH
TTITLE5=YOU ARE THE REASON WHY
TTITLE6=HOW'S THE WORLD TREATING YOU  { duet with john Mcnicholl }
TTITLE7=I STILL LOVE YOU
TTITLE8=AN ANGEL IN DISGUISE
TTITLE9=DON'T GIVE UP ON LOVE
TTITLE10=MY ONE AND ONLY LOVE
TTITLE11=SOMEONE IS LOOKING FOR SOMEONE LIKE YOU { with isla grant }
TTITLE12=MY FATHERS LOVE
EXTD=
EXTT0=
EXTT1=
EXTT2=
EXTT3=
EXTT4=
EXTT5=
EXTT6=
EXTT7=
EXTT8=
EXTT9=
EXTT10=
EXTT11=
EXTT12=
PLAYORDER=
